<svg width="60" height="60" viewBox="0 0 60 60" fill="none" xmlns="http://www.w3.org/2000/svg">
<circle cx="30" cy="30" r="30" fill="#162A41"/>
<g clip-path="url(#clip0_316_864)">
<path d="M26.75 35.6123V40.2503C26.75 40.5743 26.958 40.8613 27.266 40.9633C27.343 40.9883 27.422 41.0003 27.5 41.0003C27.734 41.0003 27.96 40.8903 28.104 40.6943L30.817 37.0023L26.75 35.6123Z" fill="white"/>
<path d="M41.6851 18.1391C41.4551 17.9761 41.1531 17.9541 40.9031 18.0851L18.403 29.8351C18.137 29.9741 17.98 30.2581 18.002 30.5571C18.025 30.8571 18.224 31.1131 18.507 31.2101L24.762 33.3481L38.0831 21.9581L27.775 34.3771L38.2581 37.9601C38.3361 37.9861 38.4181 38.0001 38.5001 38.0001C38.6361 38.0001 38.7711 37.9631 38.8901 37.8911C39.0801 37.7751 39.2091 37.5801 39.2421 37.3611L41.9921 18.8611C42.0331 18.5811 41.9151 18.3031 41.6851 18.1391Z" fill="white"/>
</g>
<defs>
<clipPath id="clip0_316_864">
<rect width="24" height="24" fill="white" transform="translate(18 18)"/>
</clipPath>
</defs>
</svg>
